<svg width="223" height="51" viewBox="0 0 223 51" fill="none" xmlns="http://www.w3.org/2000/svg">
<path d="M76.2972 7.31154L74.4221 11.2005C72.3509 9.99699 69.7462 9.15803 68.1497 9.15803C66.863 9.15803 65.9922 9.6324 65.9922 10.585C65.9922 13.9722 76.3521 12.0395 76.3521 19.1197C76.3521 23.0361 72.8805 25.11 68.5106 25.11C65.2351 25.11 61.8733 23.879 59.551 21.9776L61.4849 18.1435C63.5012 19.9077 66.5257 21.0838 68.5694 21.0838C70.1385 21.0838 71.1192 20.4957 71.1192 19.3784C71.1192 15.9089 60.7592 17.9789 60.7592 11.0398C60.7592 7.42915 63.866 5.13574 68.5733 5.13574C71.4016 5.13574 74.2848 6.00214 76.3011 7.31938L76.2972 7.31154Z" fill="#FF8000"/>
<path d="M98.9785 15.1168C98.9785 20.8249 94.4399 25.1647 88.3636 25.1647C82.2873 25.1647 77.78 20.8562 77.78 15.1168C77.78 9.37741 82.3147 5.18262 88.3636 5.18262C94.4125 5.18262 98.9785 9.43621 98.9785 15.1168ZM82.8757 15.1443C82.8757 18.4452 85.4255 20.9934 88.4185 20.9934C91.4116 20.9934 93.8515 18.4452 93.8515 15.1443C93.8515 11.8433 91.4429 9.34996 88.4185 9.34996C85.3941 9.34996 82.8757 11.8394 82.8757 15.1443Z" fill="#FF8000"/>
<path d="M118.749 24.9417L118.722 12.2084L114.018 22.9815H110.77L106.067 12.2084V24.9417H101.615V5.32422H107.075L112.394 16.9951L117.713 5.32422H123.146V24.9417H118.749Z" fill="#FF8000"/>
<path d="M131.545 21.331L130.117 24.9416H124.994L133.452 5.35156H138.575L146.836 24.9416H141.517L140.116 21.331H131.549H131.545ZM135.856 10.303L133 17.5517H138.657L135.856 10.303Z" fill="#FF8000"/>
<path d="M157.557 19.4296H153.638V24.9416H148.652V5.35156H157.416C162.598 5.35156 165.563 7.81355 165.563 12.1808C165.563 15.176 164.304 17.3322 162.005 18.4769L166.12 24.9416H160.464L157.553 19.4296H157.557ZM157.42 15.5092C159.577 15.5092 160.836 14.4154 160.836 12.3455C160.836 10.2755 159.577 9.268 157.42 9.268H153.638V15.5092H157.42Z" fill="#FF8000"/>
<path d="M180.101 18.5907C180.101 22.762 177.496 25.1691 173.322 25.1691C170.549 25.1691 168.309 24.0204 166.575 22.0367L168.87 18.7044C170.27 20.1589 171.84 20.888 172.985 20.888C174.303 20.888 175.084 20.0765 175.084 18.4809V9.35826H168.364V5.32812H180.097V18.5946L180.101 18.5907Z" fill="#FF8000"/>
<path d="M201.327 16.7128C201.327 21.8916 197.882 25.1651 192.394 25.1651C186.907 25.1651 183.349 21.8916 183.349 16.7128V5.35156H188.334V16.7128C188.334 19.3708 190.041 20.9938 192.422 20.9938C194.803 20.9938 196.372 19.3708 196.372 16.7128V5.35156H201.33V16.7128H201.327Z" fill="#FF8000"/>
<path d="M218.603 24.9416L209.584 12.8787V24.9416H204.908V5.35156H209.306L218.351 17.442V5.35156H223V24.9416H218.603Z" fill="#FF8000"/>
<path d="M13.5923 46.1626C17.6002 46.1626 20.8493 42.9154 20.8493 38.9099C20.8493 34.9044 17.6002 31.6572 13.5923 31.6572C9.58431 31.6572 6.33521 34.9044 6.33521 38.9099C6.33521 42.9154 9.58431 46.1626 13.5923 46.1626Z" fill="#FF8000"/>
<path d="M37.0386 20.0805C41.0465 20.0805 44.2956 16.8334 44.2956 12.8279C44.2956 8.82233 41.0465 5.5752 37.0386 5.5752C33.0306 5.5752 29.7815 8.82233 29.7815 12.8279C29.7815 16.8334 33.0306 20.0805 37.0386 20.0805Z" fill="#FF8000"/>
<path d="M38.2741 25.502H25.5173V44.2962C25.5173 44.5549 25.5173 44.7156 25.5173 44.896C25.5213 46.7425 25.5487 48.0088 25.5173 49.5651V51.0039H38.2741C45.2919 51.0039 51.0308 45.2684 51.0308 38.2549C51.0308 31.2414 45.2919 25.5059 38.2741 25.5059V25.502Z" fill="#FF8000"/>
<path d="M12.7568 0C5.73897 0 0 5.73941 0 12.749C0 19.7586 5.74289 25.498 12.7568 25.498H25.5135V0H12.7568Z" fill="#FF8000"/>
<path d="M75.9402 37.2862H72.8491V36.1689H80.3023V37.2862H77.2112V45.174H75.9363V37.2862H75.9402Z" fill="black"/>
<path d="M90.8231 44.0528V45.174H84.2839V36.1689H90.6427V37.2862H85.5706V40.054H90.0896V41.1478H85.5706V44.0567H90.8231V44.0528Z" fill="black"/>
<path d="M97.0327 44.6765C96.307 44.2766 95.7382 43.7278 95.3263 43.03C94.9144 42.3321 94.7065 41.5441 94.7065 40.6699C94.7065 39.7957 94.9144 39.0077 95.3263 38.3098C95.7382 37.612 96.307 37.0632 97.0367 36.6633C97.7663 36.2634 98.5822 36.0635 99.4844 36.0635C100.187 36.0635 100.83 36.1811 101.414 36.4163C101.999 36.6515 102.497 37.0004 102.909 37.463L102.073 38.2746C101.395 37.565 100.551 37.2082 99.5394 37.2082C98.8686 37.2082 98.2645 37.3572 97.7231 37.6591C97.1818 37.9609 96.7581 38.3726 96.4561 38.9018C96.154 39.4311 95.9971 40.0191 95.9971 40.6699C95.9971 41.3207 96.1501 41.9127 96.4561 42.438C96.7621 42.9633 97.1818 43.3789 97.7231 43.6807C98.2645 43.9826 98.8686 44.1316 99.5394 44.1316C100.544 44.1316 101.387 43.7709 102.073 43.0496L102.909 43.8611C102.497 44.3237 101.999 44.6765 101.411 44.9157C100.822 45.1548 100.179 45.2763 99.4727 45.2763C98.5704 45.2763 97.7584 45.0764 97.0327 44.6765Z" fill="black"/>
<path d="M115.074 36.165V45.1701H113.787V41.1557H108.613V45.1701H107.326V36.165H108.613V40.0384H113.787V36.165H115.074Z" fill="black"/>
<path d="M127.979 44.6765C127.254 44.2766 126.685 43.7278 126.273 43.03C125.861 42.3321 125.653 41.5441 125.653 40.6699C125.653 39.7957 125.857 39.0077 126.273 38.3098C126.685 37.612 127.254 37.0632 127.983 36.6633C128.713 36.2634 129.529 36.0635 130.427 36.0635C131.129 36.0635 131.773 36.1811 132.357 36.4163C132.942 36.6515 133.44 37.0004 133.852 37.463L133.016 38.2746C132.337 37.565 131.494 37.2082 130.482 37.2082C129.811 37.2082 129.207 37.3572 128.666 37.6591C128.124 37.9609 127.701 38.3726 127.399 38.9018C127.093 39.4311 126.94 40.0191 126.94 40.6699C126.94 41.3207 127.093 41.9127 127.399 42.438C127.705 42.9633 128.124 43.3789 128.666 43.6807C129.207 43.9826 129.811 44.1316 130.482 44.1316C131.486 44.1316 132.33 43.7709 133.016 43.0496L133.852 43.8611C133.44 44.3237 132.938 44.6765 132.353 44.9157C131.765 45.1548 131.117 45.2763 130.415 45.2763C129.513 45.2763 128.701 45.0764 127.975 44.6765H127.979Z" fill="black"/>
<path d="M139.685 44.6765C138.955 44.2766 138.382 43.7278 137.966 43.0221C137.551 42.3204 137.343 41.5363 137.343 40.666C137.343 39.7957 137.551 39.0155 137.966 38.3138C138.382 37.612 138.955 37.0593 139.685 36.6594C140.414 36.2595 141.234 36.0596 142.144 36.0596C143.054 36.0596 143.862 36.2595 144.592 36.6594C145.322 37.0593 145.89 37.6081 146.302 38.3059C146.714 39.0038 146.922 39.7918 146.922 40.666C146.922 41.5402 146.714 42.3282 146.302 43.0261C145.89 43.7239 145.322 44.2727 144.592 44.6726C143.862 45.0725 143.046 45.2724 142.144 45.2724C141.242 45.2724 140.414 45.0725 139.685 44.6726V44.6765ZM143.929 43.6768C144.459 43.375 144.874 42.9633 145.176 42.4341C145.482 41.9048 145.635 41.3168 145.635 40.666C145.635 40.0152 145.482 39.4232 145.176 38.8979C144.871 38.3687 144.455 37.957 143.929 37.6552C143.403 37.3533 142.807 37.2043 142.148 37.2043C141.489 37.2043 140.889 37.3533 140.352 37.6552C139.814 37.957 139.394 38.3687 139.088 38.8979C138.782 39.4272 138.629 40.0152 138.629 40.666C138.629 41.3168 138.782 41.9087 139.088 42.4341C139.394 42.9594 139.814 43.375 140.352 43.6768C140.889 43.9787 141.485 44.1277 142.148 44.1277C142.811 44.1277 143.403 43.9787 143.929 43.6768Z" fill="black"/>
<path d="M159.82 45.1701L159.809 38.6074L156.553 44.0763H155.96L152.704 38.6466V45.1701H151.469V36.165H152.524L156.282 42.4925L159.989 36.165H161.044L161.056 45.1701H159.82Z" fill="black"/>
<path d="M172.601 37.0001C173.271 37.5568 173.605 38.3252 173.605 39.3013C173.605 40.2775 173.271 41.0459 172.601 41.6065C171.93 42.1632 171.012 42.4415 169.847 42.4415H167.619V45.1701H166.332V36.165H169.847C171.012 36.165 171.934 36.4434 172.601 37.0001ZM171.675 40.8028C172.102 40.4539 172.318 39.956 172.318 39.3053C172.318 38.6545 172.102 38.1527 171.675 37.8077C171.247 37.4627 170.624 37.2863 169.808 37.2863H167.619V41.3242H169.808C170.624 41.3242 171.243 41.1517 171.675 40.8028Z" fill="black"/>
<path d="M183.36 42.9198H178.571L177.578 45.1701H176.252L180.332 36.165H181.607L185.698 45.1701H184.345L183.353 42.9198H183.36ZM182.913 41.8888L180.968 37.4744L179.022 41.8888H182.909H182.913Z" fill="black"/>
<path d="M197.369 36.165V45.1701H196.313L190.908 38.4545V45.1701H189.621V36.165H190.676L196.082 42.8806V36.165H197.369Z" fill="black"/>
<path d="M206.093 42.0573V45.1701H204.818V42.0299L201.24 36.165H202.617L205.5 40.9126L208.395 36.165H209.67L206.093 42.0573Z" fill="black"/>
</svg>
