<svg width="229" height="169" viewBox="0 0 229 169" fill="none" xmlns="http://www.w3.org/2000/svg">
<g clip-path="url(#clip0_981_828)">
<path d="M23.4198 122.48L20.7998 127.92C17.8998 126.24 14.2598 125.06 12.0298 125.06C10.2298 125.06 9.00977 125.73 9.00977 127.06C9.00977 131.8 23.4998 129.1 23.4998 139C23.4998 144.48 18.6398 147.38 12.5398 147.38C7.95977 147.38 3.25977 145.66 0.00976562 142.99L2.70977 137.63C5.52977 140.1 9.75977 141.74 12.6198 141.74C14.8098 141.74 16.1798 140.92 16.1798 139.35C16.1798 134.49 1.68977 137.39 1.68977 127.68C1.68977 122.63 6.03977 119.42 12.6198 119.42C16.5798 119.42 20.6098 120.63 23.4298 122.47L23.4198 122.48Z" fill="#FF8000"/>
<path d="M55.1302 133.41C55.1302 141.4 48.7902 147.47 40.2902 147.47C31.7902 147.47 25.4902 141.44 25.4902 133.41C25.4902 125.38 31.8302 119.51 40.2902 119.51C48.7502 119.51 55.1302 125.46 55.1302 133.41ZM32.6202 133.44C32.6202 138.06 36.1802 141.62 40.3702 141.62C44.5602 141.62 47.9702 138.06 47.9702 133.44C47.9702 128.82 44.6002 125.33 40.3702 125.33C36.1402 125.33 32.6202 128.82 32.6202 133.44Z" fill="#FF8000"/>
<path d="M82.7796 147.15L82.7396 129.33L76.1596 144.41H71.6196L65.0396 129.33V147.15H58.8096V119.7H66.4496L73.8896 136.03L81.3296 119.7H88.9296V147.15H82.7796Z" fill="#FF8000"/>
<path d="M100.67 142.1L98.67 147.15H91.5L103.33 119.74H110.5L122.05 147.15H114.61L112.65 142.1H100.67ZM106.7 126.67L102.71 136.81H110.62L106.7 126.67Z" fill="#FF8000"/>
<path d="M137.05 139.44H131.57V147.15H124.6V119.74H136.86C144.1 119.74 148.26 123.19 148.26 129.29C148.26 133.48 146.5 136.5 143.29 138.1L149.05 147.15H141.14L137.07 139.44H137.05ZM136.85 133.95C139.87 133.95 141.63 132.42 141.63 129.52C141.63 126.62 139.87 125.21 136.85 125.21H131.56V133.94H136.85V133.95Z" fill="#FF8000"/>
<path d="M168.569 138.26C168.569 144.09 164.929 147.46 159.089 147.46C155.209 147.46 152.079 145.85 149.649 143.07L152.859 138.41C154.819 140.45 157.009 141.46 158.619 141.46C160.459 141.46 161.559 140.32 161.559 138.09V125.32H152.159V119.68H168.569V138.24V138.26Z" fill="#FF8000"/>
<path d="M198.249 135.64C198.249 142.88 193.429 147.47 185.759 147.47C178.089 147.47 173.109 142.89 173.109 135.64V119.74H180.079V135.64C180.079 139.36 182.469 141.63 185.799 141.63C189.129 141.63 191.319 139.36 191.319 135.64V119.74H198.249V135.64Z" fill="#FF8000"/>
<path d="M222.41 147.15L209.8 130.27V147.15H203.26V119.74H209.41L222.06 136.66V119.74H228.56V147.15H222.41Z" fill="#FF8000"/>
<path d="M90.61 91.6799C98.5629 91.6799 105.01 85.2328 105.01 77.2799C105.01 69.327 98.5629 62.8799 90.61 62.8799C82.6571 62.8799 76.21 69.327 76.21 77.2799C76.21 85.2328 82.6571 91.6799 90.61 91.6799Z" fill="#FF8000"/>
<path d="M137.15 39.8801C145.103 39.8801 151.55 33.433 151.55 25.4801C151.55 17.5272 145.103 11.0801 137.15 11.0801C129.197 11.0801 122.75 17.5272 122.75 25.4801C122.75 33.433 129.197 39.8801 137.15 39.8801Z" fill="#FF8000"/>
<path d="M139.601 50.6497H114.271V87.9797C114.361 88.3697 114.421 88.7597 114.411 89.1597C114.411 92.2497 114.321 95.3497 114.271 98.4397V101.3H139.601C153.531 101.3 164.931 89.8997 164.931 75.9697C164.931 62.0396 153.541 50.6396 139.611 50.6396L139.601 50.6497Z" fill="#FF8000"/>
<path d="M88.9501 0C75.0201 0 63.6201 11.4 63.6201 25.33C63.6201 39.26 75.0201 50.66 88.9501 50.66H114.28V0H88.9501Z" fill="#FF8000"/>
<path d="M43.0594 157.86V159.23H40.2194V168.54H38.4694V159.23H35.6094V157.86H43.0594Z" fill="white"/>
<path d="M49.6396 159.211V162.451H53.3297V163.801H49.6396V167.161H53.7896V168.531H47.8896V157.841H53.7896V159.211H49.6396Z" fill="white"/>
<path d="M59.1597 160.37C59.6497 159.54 60.3097 158.89 61.1397 158.43C61.9697 157.97 62.8897 157.73 63.8797 157.73C65.0197 157.73 66.0297 158.01 66.9097 158.57C67.7897 159.13 68.4397 159.92 68.8397 160.94H66.7397C66.4597 160.41 66.0797 160.01 65.5897 159.73C65.0997 159.46 64.5297 159.32 63.8797 159.32C63.1697 159.32 62.5397 159.48 61.9897 159.8C61.4397 160.12 60.9997 160.57 60.6897 161.15C60.3797 161.73 60.2197 162.41 60.2197 163.18C60.2197 163.95 60.3797 164.63 60.6897 165.22C60.9997 165.81 61.4297 166.26 61.9897 166.58C62.5397 166.9 63.1697 167.06 63.8797 167.06C64.5197 167.06 65.0897 166.92 65.5897 166.65C66.0797 166.38 66.4697 165.98 66.7397 165.44H68.8397C68.4397 166.46 67.7997 167.25 66.9097 167.81C66.0197 168.37 65.0097 168.64 63.8797 168.64C62.8797 168.64 61.9597 168.41 61.1297 167.94C60.2997 167.47 59.6397 166.83 59.1597 166C58.6797 165.17 58.4297 164.23 58.4297 163.19C58.4297 162.15 58.6697 161.21 59.1597 160.38V160.37Z" fill="white"/>
<path d="M82.479 157.86V168.53H80.729V163.82H75.709V168.53H73.959V157.86H75.709V162.47H80.729V157.86H82.479Z" fill="white"/>
<path d="M95.6792 160.37C96.1692 159.54 96.8292 158.89 97.6592 158.43C98.4892 157.97 99.4092 157.73 100.399 157.73C101.539 157.73 102.549 158.01 103.429 158.57C104.309 159.13 104.959 159.92 105.359 160.94H103.259C102.979 160.41 102.599 160.01 102.109 159.73C101.619 159.46 101.049 159.32 100.399 159.32C99.6892 159.32 99.0592 159.48 98.5092 159.8C97.9592 160.12 97.5192 160.57 97.2092 161.15C96.8992 161.73 96.7392 162.41 96.7392 163.18C96.7392 163.95 96.8992 164.63 97.2092 165.22C97.5192 165.81 97.9492 166.26 98.5092 166.58C99.0592 166.9 99.6892 167.06 100.399 167.06C101.039 167.06 101.609 166.92 102.109 166.65C102.599 166.38 102.989 165.98 103.259 165.44H105.359C104.959 166.46 104.319 167.25 103.429 167.81C102.539 168.37 101.529 168.64 100.399 168.64C99.3992 168.64 98.4792 168.41 97.6492 167.94C96.8192 167.47 96.1592 166.83 95.6792 166C95.1992 165.17 94.9492 164.23 94.9492 163.19C94.9492 162.15 95.1892 161.21 95.6792 160.38V160.37Z" fill="white"/>
<path d="M112.6 167.95C111.77 167.48 111.1 166.83 110.62 166C110.14 165.17 109.89 164.23 109.89 163.18C109.89 162.13 110.13 161.2 110.62 160.37C111.11 159.54 111.77 158.89 112.6 158.43C113.43 157.97 114.35 157.73 115.34 157.73C116.33 157.73 117.26 157.96 118.1 158.43C118.93 158.9 119.59 159.54 120.07 160.37C120.55 161.2 120.79 162.14 120.79 163.18C120.79 164.22 120.55 165.16 120.07 166C119.59 166.83 118.93 167.48 118.1 167.95C117.27 168.41 116.35 168.65 115.34 168.65C114.33 168.65 113.43 168.42 112.6 167.95ZM117.23 166.58C117.78 166.26 118.22 165.8 118.53 165.21C118.84 164.62 119 163.94 119 163.17C119 162.4 118.84 161.73 118.53 161.14C118.22 160.55 117.78 160.11 117.23 159.79C116.68 159.47 116.05 159.31 115.34 159.31C114.63 159.31 114 159.47 113.45 159.79C112.9 160.11 112.46 160.56 112.15 161.14C111.84 161.72 111.68 162.4 111.68 163.17C111.68 163.94 111.84 164.62 112.15 165.21C112.46 165.8 112.89 166.25 113.45 166.58C114 166.9 114.63 167.06 115.34 167.06C116.05 167.06 116.68 166.9 117.23 166.58Z" fill="white"/>
<path d="M136.83 157.86V168.53H135.08V161.22L131.82 168.53H130.61L127.34 161.22V168.53H125.59V157.86H127.48L131.23 166.23L134.96 157.86H136.83Z" fill="white"/>
<path d="M149.289 162.58C149.029 163.06 148.619 163.45 148.059 163.76C147.499 164.06 146.769 164.21 145.889 164.21H143.949V168.54H142.199V157.87H145.889C146.709 157.87 147.399 158.01 147.969 158.29C148.539 158.57 148.959 158.95 149.239 159.43C149.519 159.91 149.659 160.45 149.659 161.04C149.659 161.58 149.529 162.09 149.279 162.58H149.289ZM147.379 162.36C147.709 162.04 147.869 161.6 147.869 161.04C147.869 160.48 147.709 160.02 147.379 159.7C147.049 159.38 146.559 159.22 145.889 159.22H143.949V162.83H145.889C146.559 162.83 147.049 162.67 147.379 162.35V162.36Z" fill="white"/>
<path d="M160.849 166.361H156.379L155.609 168.541H153.779L157.599 157.851H159.629L163.449 168.541H161.609L160.839 166.361H160.849ZM160.369 164.991L158.619 159.971L156.849 164.991H160.369Z" fill="white"/>
<path d="M176.959 168.541H175.209L169.939 160.571V168.541H168.189V157.851H169.939L175.209 165.811V157.851H176.959V168.541Z" fill="white"/>
<path d="M190.249 157.86L186.719 164.66V168.53H184.969V164.66L181.419 157.86H183.369L185.829 163.07L188.289 157.86H190.259H190.249Z" fill="white"/>
</g>
<defs>
<clipPath id="clip0_981_828">
<rect width="228.56" height="168.64" fill="white"/>
</clipPath>
</defs>
</svg>
